<svg id="Layer_1" data-name="Layer 1" xmlns="http://www.w3.org/2000/svg" viewBox="0 0 141.73 141.73"><defs><style>.cls-1{fill:#40bdff;}.cls-2{fill:#228ed6;}.cls-3{fill:#263238;}</style></defs><path class="cls-1" d="M44,86.83a12.35,12.35,0,0,0-24.7,0V125.3H44Z"/><path class="cls-2" d="M31.65,74.48a12.38,12.38,0,0,0-4.87,1,12.35,12.35,0,0,1,7.48,11.35v38.47H44V86.83A12.37,12.37,0,0,0,31.65,74.48Z"/><path class="cls-3" d="M128.91,130.16a2.7,2.7,0,0,0,2.71-2.7V28.78a17.22,17.22,0,0,0-34.43,0v98.68a2.7,2.7,0,0,0,2.7,2.7ZM102.54,28.78a11.81,11.81,0,0,1,23.62,0h0v96H102.54Z"/><path class="cls-3" d="M85.37,130.16a2.7,2.7,0,0,0,2.71-2.7V57.81a17.22,17.22,0,1,0-34.43,0v69.65a2.7,2.7,0,0,0,2.7,2.7ZM59.05,57.81a11.81,11.81,0,0,1,23.62,0v67H59.05Z"/><path class="cls-3" d="M12.82,130.16h29a2.7,2.7,0,0,0,2.7-2.7V86.83a17.21,17.21,0,1,0-34.42,0v40.63a2.7,2.7,0,0,0,2.7,2.7Zm2.7-43.33a11.81,11.81,0,0,1,23.62,0h0v37.93H15.52Z"/></svg>