<svg id="Layer_1" data-name="Layer 1" xmlns="http://www.w3.org/2000/svg" viewBox="0 0 50 50"><defs><style>.cls-1{fill:none;stroke:#603275;stroke-miterlimit:10;stroke-width:1.4px;}</style></defs><path class="cls-1" d="M20.31,12.6c-.28-2.52-.49-4.74-.83-6.93,0-.28-.8-.64-1.22-.63-1.85,0-3.68.26-5.53.32-.4,0-.82-.32-1.23-.5.37-.25.71-.68,1.1-.72,2.11-.23,4.23-.39,6.35-.54a1.57,1.57,0,0,1,1.87,1.64c.18,2,.49,4,.63,6,.07,1,.48,1.36,1.46,1.31s2.23,0,3.3,0C28,7.55,30,6,33.36,6.91a5.38,5.38,0,0,1,3.85,6.23c-.59,3.12-3.16,4.42-7.94,3.95-.22,2.75-.39,5.46.92,8a12.3,12.3,0,0,1,1.48,6.62C31.37,36,29,38.59,24.74,39c-1.35.12-1.71.61-1.63,1.85s0,2.68,0,4.34h4.53a5.9,5.9,0,0,1,1.33,0,4.35,4.35,0,0,1,1.05.58c-.37.23-.73.65-1.09.66-3.69,0-7.39,0-11.08,0a12.23,12.23,0,0,1-2,0c-.33-.05-.62-.44-.92-.67.3-.19.59-.53.9-.55,1.17-.07,2.35,0,3.52,0,2.71,0,2.47.32,2.47-2.38,0-1.06.32-2.38-.19-3.1s-1.84-.65-2.83-.91a6.84,6.84,0,0,1-5.5-6.91,16.41,16.41,0,0,1,1.14-6c1.66-4.09,2.17-8,0-12.09-.53-1,.26-1.14,1-1.15C17,12.59,18.46,12.6,20.31,12.6Zm2.26,7c-1.23,0-2.46.05-3.69,0s-1.73.25-1.88,1.62a28.88,28.88,0,0,1-1.29,4.82,29.43,29.43,0,0,0-1.14,3.83c-.5,3.46,1,6.24,3.68,7.34,3.69,1.5,9.14.59,10.9-1.88a6.37,6.37,0,0,0,.93-2,10.78,10.78,0,0,0-.7-7A29.65,29.65,0,0,1,27.9,21c-.19-1-.49-1.37-1.47-1.33C25.14,19.68,23.86,19.64,22.57,19.64ZM28,12.48c.25,0,.51.08.78.1,2,.15,2,.16,1.19,1.88-.39.83-.15,1.21.67,1.49a4.09,4.09,0,0,0,4.51-6.38,4.22,4.22,0,0,0-4.83-1.29A3.81,3.81,0,0,0,28,12.48ZM21.79,14a22.5,22.5,0,0,0,.43,3.58,1.7,1.7,0,0,0,1.46.79c1.39-.21,3.18,1,4.1-.69.56-1,.48-2.36.71-3.68Zm-5.47-.09c.28,1.4.44,2.55.76,3.65a1.45,1.45,0,0,0,1,.82c2.59.43,2.88.13,2.6-2.47a3.56,3.56,0,0,0-.14-1.15c-.16-.33-.51-.79-.81-.81C18.63,13.8,17.54,13.86,16.32,13.86Z"/><path class="cls-1" d="M22.57,19.64c1.29,0,2.57,0,3.86,0,1,0,1.28.36,1.47,1.33a29.65,29.65,0,0,0,1.48,5.43,10.78,10.78,0,0,1,.7,7,6.37,6.37,0,0,1-.93,2c-1.76,2.47-7.21,3.38-10.9,1.88-2.71-1.1-4.18-3.88-3.68-7.34a29.43,29.43,0,0,1,1.14-3.83A28.88,28.88,0,0,0,17,21.25c.15-1.37.68-1.69,1.88-1.62S21.34,19.64,22.57,19.64Zm5.84,11.68c-.35-1.06-.55-1.87-.89-2.62-.11-.24-.59-.32-.91-.47-.06.34-.29.74-.17,1A4.33,4.33,0,0,1,26,33.81c-.15.21,0,.66,0,1,.33-.11.85-.12,1-.34C27.51,33.41,28,32.3,28.41,31.32Z"/><path class="cls-1" d="M28,12.48a3.81,3.81,0,0,1,2.32-4.2,4.22,4.22,0,0,1,4.83,1.29A4.09,4.09,0,0,1,30.68,16c-.82-.28-1.06-.66-.67-1.49.8-1.72.78-1.73-1.19-1.88C28.55,12.56,28.29,12.51,28,12.48Z"/><path class="cls-1" d="M21.79,14h6.7c-.23,1.32-.15,2.68-.71,3.68-.92,1.65-2.71.48-4.1.69a1.7,1.7,0,0,1-1.46-.79A22.5,22.5,0,0,1,21.79,14Z"/><path class="cls-1" d="M16.32,13.86c1.22,0,2.31-.06,3.39,0,.3,0,.65.48.81.81a3.56,3.56,0,0,1,.14,1.15c.28,2.6,0,2.9-2.6,2.47a1.45,1.45,0,0,1-1-.82C16.76,16.41,16.6,15.26,16.32,13.86Z"/><path class="cls-1" d="M28.41,31.32c-.44,1-.9,2.09-1.46,3.15-.11.22-.63.23-1,.34,0-.34-.19-.79,0-1a4.33,4.33,0,0,0,.49-4.58c-.12-.26.11-.66.17-1,.32.15.8.23.91.47C27.86,29.45,28.06,30.26,28.41,31.32Z"/></svg>